HIERARCHY
ROOT joint_Root
{
	OFFSET 0.0 0.0 0.0
	CHANNELS 6 Xposition Yposition Zposition Zrotation Xrotation Yrotation 
	JOINT Hips
	{
		OFFSET 4.5925 91.4895 -427.239
		CHANNELS 6 Xposition Yposition Zposition Zrotation Xrotation Yrotation 
		JOINT Spine
		{
			OFFSET 15.7357 0.0 0.0
			CHANNELS 6 Xposition Yposition Zposition Zrotation Xrotation Yrotation 
			JOINT Chest
			{
				OFFSET 8.98455 -0.406207 0.0
				CHANNELS 6 Xposition Yposition Zposition Zrotation Xrotation Yrotation 
				JOINT Neck
				{
					OFFSET 16.3773 0.0 0.0
					CHANNELS 6 Xposition Yposition Zposition Zrotation Xrotation Yrotation 
					JOINT Head
					{
						OFFSET 6.45672 0.0 0.0
						CHANNELS 6 Xposition Yposition Zposition Zrotation Xrotation Yrotation 
						End Site
						{
							OFFSET 0.0 0.0 0.0
						}
					}
				}
				JOINT Shoulder_L
				{
					OFFSET 12.9942 -0.242716 4.98039
					CHANNELS 6 Xposition Yposition Zposition Zrotation Xrotation Yrotation 
					JOINT UpperArm_L
					{
						OFFSET 5.34809 0.0 0.0
						CHANNELS 6 Xposition Yposition Zposition Zrotation Xrotation Yrotation 
						JOINT LowerArm_L
						{
							OFFSET 24.3286 1.87007e-05 0.0
							CHANNELS 6 Xposition Yposition Zposition Zrotation Xrotation Yrotation 
							JOINT Hand_L
							{
								OFFSET 22.2916 0.0 0.0
								CHANNELS 6 Xposition Yposition Zposition Zrotation Xrotation Yrotation 
								End Site
								{
									OFFSET 0.0 0.0 0.0
								}
							}
						}
					}
				}
				JOINT Shoulder_R
				{
					OFFSET 12.9945 -0.242716 -4.98039
					CHANNELS 6 Xposition Yposition Zposition Zrotation Xrotation Yrotation 
					JOINT UpperArm_R
					{
						OFFSET -5.34813 0.0 0.0
						CHANNELS 6 Xposition Yposition Zposition Zrotation Xrotation Yrotation 
						JOINT LowerArm_R
						{
							OFFSET -24.3289 0.000322201 0.0
							CHANNELS 6 Xposition Yposition Zposition Zrotation Xrotation Yrotation 
							JOINT Hand_R
							{
								OFFSET -22.2915 -0.000108084 0.0
								CHANNELS 6 Xposition Yposition Zposition Zrotation Xrotation Yrotation 
								End Site
								{
									OFFSET 0.0 0.0 0.0
								}
							}
						}
					}
				}
			}
		}
		JOINT UpperLeg_L
		{
			OFFSET -2.19248 -6.46944 0.0
			CHANNELS 6 Xposition Yposition Zposition Zrotation Xrotation Yrotation 
			JOINT LowerLeg_L
			{
				OFFSET 39.0811 0.0 -1.23785e-05
				CHANNELS 6 Xposition Yposition Zposition Zrotation Xrotation Yrotation 
				JOINT Foot_L
				{
					OFFSET 40.9854 0.0 -1.26872e-05
					CHANNELS 6 Xposition Yposition Zposition Zrotation Xrotation Yrotation 
					JOINT Toes_L
					{
						OFFSET 11.7543 0.0 0.0
						CHANNELS 6 Xposition Yposition Zposition Zrotation Xrotation Yrotation 
						End Site
						{
							OFFSET 0.0 0.0 0.0
						}
					}
				}
			}
		}
		JOINT UpperLeg_R
		{
			OFFSET -2.19251 6.46944 0.0
			CHANNELS 6 Xposition Yposition Zposition Zrotation Xrotation Yrotation 
			JOINT LowerLeg_R
			{
				OFFSET -39.0811 -0.00228153 -0.0401928
				CHANNELS 6 Xposition Yposition Zposition Zrotation Xrotation Yrotation 
				JOINT Foot_R
				{
					OFFSET -40.9854 0.0 0.0
					CHANNELS 6 Xposition Yposition Zposition Zrotation Xrotation Yrotation 
					JOINT Toes_R
					{
						OFFSET -11.7543 0.0 0.0
						CHANNELS 6 Xposition Yposition Zposition Zrotation Xrotation Yrotation 
						End Site
						{
							OFFSET 0.0 0.0 0.0
						}
					}
				}
			}
		}
	}
}
MOTION
Frames:	9
Frame Time:	0.0333333
0.000000 0.000000 0.000000 0.000000 0.000000 -0.000000 -5.394930 86.622000 -514.162000 87.413100 -1.906190 0.300904 15.735700 0.000005 -0.000001 92.392300 83.167400 -91.599900 8.984550 -0.406207 -0.000000 5.884110 0.555917 1.554380 16.377300 -0.000001 -0.000001 -1.779270 -3.114510 1.114130 6.456720 -0.000001 -0.000000 -3.587390 -2.907470 0.604524 12.994200 -0.242716 4.980390 -91.342200 5.232070 -75.590000 5.348090 -0.000007 -0.000001 -64.617200 24.371000 2.421160 24.328600 0.000019 0.000005 1.222490 0.806348 -56.619300 22.291600 -0.000001 0.000005 12.833300 5.468960 -5.331860 12.994500 -0.242716 -4.980390 89.030100 8.598860 -83.540400 -5.348130 -0.000001 -0.000004 -51.114200 14.269200 -36.236000 -24.328900 0.000322 -0.000009 -18.256900 -0.360790 -88.905900 -22.291500 -0.000108 -0.000004 26.029500 5.598380 -11.245800 -2.192480 -6.469440 -0.000000 -173.950000 -5.956350 -25.655100 39.081100 -0.000007 -0.000012 0.069039 -0.023193 71.425700 40.985400 -0.000006 -0.000013 3.261440 -1.236310 -69.674600 11.754300 -0.000000 0.000003 -0.003641 -0.047655 -18.515100 -2.192510 6.469440 -0.000001 -175.508000 16.239800 156.995000 -39.081100 -0.002282 -0.040193 -0.141884 0.127513 48.698200 -40.985400 0.000008 0.000006 6.285640 -2.101360 -76.715700 -11.754300 -0.000006 -0.000006 -0.008617 -0.092995 -20.360600
0.000000 0.000000 0.000000 0.000000 0.000000 -0.000000 -5.345220 87.035100 -511.769000 87.616800 -2.265420 -0.049949 15.735700 0.000005 -0.000001 95.886100 83.135000 -95.286200 8.984550 -0.406207 -0.000000 5.885960 1.394540 1.126710 16.377300 -0.000001 -0.000001 -2.029680 -3.032240 1.681390 6.456720 -0.000001 -0.000000 -3.777350 -3.903730 0.415388 12.994200 -0.242716 4.980390 -91.328300 5.062660 -75.278000 5.348090 -0.000007 -0.000001 -66.705700 24.738600 9.440580 24.328600 0.000019 0.000005 1.557870 1.077470 -55.336200 22.291600 -0.000001 0.000005 12.645100 5.469830 -5.364270 12.994500 -0.242716 -4.980390 89.184600 7.566750 -83.831100 -5.348130 -0.000001 -0.000004 -51.956300 10.283700 -42.868600 -24.328900 0.000322 -0.000009 -17.959200 0.420324 -91.295200 -22.291500 -0.000108 -0.000004 25.729400 5.599690 -11.324100 -2.192480 -6.469440 -0.000000 -174.898000 -7.068170 -28.454400 39.081100 -0.000007 -0.000012 0.062245 -0.028177 65.640600 40.985400 -0.000006 -0.000013 1.937690 -0.223832 -70.811500 11.754300 -0.000000 0.000003 -0.003544 -0.046622 -18.473000 -2.192510 6.469440 -0.000001 -176.264000 17.027100 159.415000 -39.081100 -0.002282 -0.040193 -0.044168 0.044156 47.044800 -40.985400 0.000008 0.000006 6.425210 -0.960273 -77.943100 -11.754300 -0.000006 -0.000006 -0.008457 -0.091725 -20.308700
0.000000 0.000000 0.000000 0.000000 0.000000 -0.000000 -5.143040 87.792100 -509.170000 88.023900 -2.489840 -0.586663 15.735700 0.000005 -0.000001 99.568900 83.196900 -99.232000 8.984550 -0.406207 -0.000000 5.647720 2.250080 0.561958 16.377300 -0.000001 -0.000001 -2.211120 -3.281550 1.938230 6.456720 -0.000001 -0.000000 -4.005930 -4.693740 0.360358 12.994200 -0.242716 4.980390 -91.215700 4.440940 -74.673500 5.348090 -0.000007 -0.000001 -68.872300 24.999100 15.573200 24.328600 0.000019 0.000005 -0.506715 -0.345959 -55.662300 22.291600 -0.000001 0.000005 11.381300 5.478560 -5.694450 12.994500 -0.242716 -4.980390 89.338400 6.532960 -84.204300 -5.348130 -0.000001 -0.000004 -53.334900 7.224800 -47.106400 -24.328900 0.000322 -0.000009 -18.074700 1.197650 -93.663600 -22.291500 -0.000108 -0.000004 26.023700 5.600220 -11.355600 -2.192480 -6.469440 -0.000000 -176.498000 -9.033940 -29.944200 39.081100 -0.000007 -0.000012 0.047912 -0.031928 56.317700 40.985400 -0.000006 -0.000013 0.939130 -0.426078 -70.304000 11.754300 -0.000000 0.000003 -0.003820 -0.049561 -18.592700 -2.192510 6.469440 -0.000001 -177.378000 18.174500 162.470000 -39.081100 -0.002282 -0.040193 0.027138 -0.024832 43.869000 -40.985400 0.000008 0.000006 6.807130 0.404506 -78.243800 -11.754300 -0.000006 -0.000006 -0.008655 -0.093298 -20.372900
0.000000 0.000000 0.000000 0.000000 0.000000 -0.000000 -4.718710 88.700500 -506.205000 88.697200 -2.617680 -1.060470 15.735700 0.000005 -0.000001 103.694000 83.295300 -103.676000 8.984550 -0.406207 -0.000000 5.268120 3.167230 -0.109199 16.377300 -0.000001 -0.000001 -2.304230 -3.557570 2.087330 6.456720 -0.000001 -0.000000 -4.003600 -5.416840 0.216229 12.994200 -0.242716 4.980390 -90.993100 3.575800 -74.467500 5.348090 -0.000007 -0.000001 -70.923900 23.795700 20.589700 24.328600 0.000019 0.000005 0.499277 0.327436 -56.730200 22.291600 -0.000001 0.000005 10.195300 5.476610 -5.619490 12.994500 -0.242716 -4.980390 89.410900 5.801350 -84.191400 -5.348130 -0.000001 -0.000004 -54.320600 5.447790 -49.196700 -24.328900 0.000322 -0.000009 -18.158400 1.850640 -95.622800 -22.291500 -0.000108 -0.000004 26.428600 5.600560 -11.375500 -2.192480 -6.469440 -0.000000 -178.726000 -11.360900 -29.611300 39.081100 -0.000007 -0.000012 0.031276 -0.031455 44.834100 40.985400 -0.000006 -0.000013 0.389865 0.587063 -69.681400 11.754300 -0.000000 0.000003 -0.003920 -0.050609 -18.635400 -2.192510 6.469440 -0.000001 -179.212000 19.423600 166.287000 -39.081100 -0.002282 -0.040193 0.018686 -0.018478 39.821200 -40.985400 0.000008 0.000006 6.699380 1.994820 -77.807000 -11.754300 -0.000006 -0.000006 -0.008737 -0.093945 -20.399400
0.000000 0.000000 0.000000 0.000000 0.000000 -0.000000 -4.200970 89.510300 -502.755000 89.309800 -2.525100 -1.567050 15.735700 0.000005 -0.000001 107.176000 83.525700 -107.412000 8.984550 -0.406207 -0.000000 4.621400 3.823400 -0.627515 16.377300 -0.000001 -0.000001 -2.195400 -3.842180 2.218820 6.456720 -0.000001 -0.000000 -3.781770 -5.796780 0.220226 12.994200 -0.242716 4.980390 -90.697200 2.516260 -74.507900 5.348090 -0.000007 -0.000001 -72.801000 21.612100 24.069700 24.328600 0.000019 0.000005 0.928103 0.586740 -57.701100 22.291600 -0.000001 0.000005 10.336500 5.469810 -5.364040 12.994500 -0.242716 -4.980390 89.459200 5.119120 -83.961000 -5.348130 -0.000001 -0.000004 -54.855000 5.326860 -48.746100 -24.328900 0.000322 -0.000009 -18.197500 2.333990 -97.061400 -22.291500 -0.000108 -0.000004 26.633100 5.600570 -11.376300 -2.192480 -6.469440 -0.000000 178.553000 -13.685900 -29.637100 39.081100 -0.000007 -0.000012 0.189849 -0.258615 36.282300 40.985400 -0.000006 -0.000013 2.713960 2.790780 -67.495200 11.754300 -0.000000 0.000003 -0.002654 -0.036634 -18.066500 -2.192510 6.469440 -0.000001 178.722000 20.731500 170.626000 -39.081100 -0.002282 -0.040193 0.013636 -0.014601 35.320700 -40.985400 0.000008 0.000006 5.614510 4.009850 -77.001600 -11.754300 -0.000006 -0.000006 -0.007821 -0.086564 -20.097900
0.000000 0.000000 0.000000 0.000000 0.000000 -0.000000 -3.545190 89.988000 -498.802000 90.228900 -2.607020 -1.995450 15.735700 0.000005 -0.000001 109.796000 83.882600 -110.372000 8.984550 -0.406207 -0.000000 3.775270 4.158110 -1.288940 16.377300 -0.000001 -0.000001 -1.840240 -3.966000 2.351440 6.456720 -0.000001 -0.000000 -3.243880 -5.899780 0.359719 12.994200 -0.242716 4.980390 -90.437700 1.583130 -74.544600 5.348090 -0.000007 -0.000001 -74.144500 19.390000 25.835500 24.328600 0.000019 0.000005 -0.082555 -0.049482 -59.020100 22.291600 -0.000001 0.000005 10.303200 5.459490 -4.982480 12.994500 -0.242716 -4.980390 89.450100 4.942690 -83.643900 -5.348130 -0.000001 -0.000004 -54.795300 7.000890 -46.283600 -24.328900 0.000322 -0.000009 -17.832100 2.430610 -97.509800 -22.291500 -0.000108 -0.000004 26.500700 5.597850 -11.214200 -2.192480 -6.469440 -0.000000 176.050000 -15.829300 -29.372400 39.081100 -0.000007 -0.000012 0.120139 -0.191039 32.164600 40.985400 -0.000006 -0.000013 3.903130 2.815170 -65.193600 11.754300 -0.000000 0.000003 -0.003518 -0.046334 -18.461300 -2.192510 6.469440 -0.000001 176.122000 21.020900 174.838000 -39.081100 -0.002282 -0.040193 0.008297 -0.008094 31.696700 -40.985400 0.000008 0.000006 4.324180 5.376830 -76.059200 -11.754300 -0.000006 -0.000006 -0.007803 -0.086419 -20.091900
0.000000 0.000000 0.000000 0.000000 0.000000 -0.000000 -2.779110 89.973700 -494.612000 90.555800 -2.799760 -2.475280 15.735700 0.000005 -0.000001 112.690000 84.375900 -113.367000 8.984550 -0.406207 -0.000000 2.644750 4.365460 -1.453140 16.377300 -0.000001 -0.000001 -1.368760 -3.999130 2.401470 6.456720 -0.000001 -0.000000 -2.578430 -5.947720 0.441987 12.994200 -0.242716 4.980390 -90.366800 1.322360 -74.494700 5.348090 -0.000007 -0.000001 -74.492200 18.837900 25.429500 24.328600 0.000019 0.000005 0.468737 0.264354 -60.551800 22.291600 -0.000001 0.000005 10.574700 5.458860 -4.959840 12.994500 -0.242716 -4.980390 89.379300 5.327000 -83.344200 -5.348130 -0.000001 -0.000004 -54.170600 10.021400 -41.864800 -24.328900 0.000322 -0.000009 -17.745500 2.335830 -97.257400 -22.291500 -0.000108 -0.000004 26.266200 5.597130 -11.172200 -2.192480 -6.469440 -0.000000 175.016000 -16.870000 -29.181100 39.081100 -0.000007 -0.000012 0.041500 -0.064182 32.886100 40.985400 -0.000006 -0.000013 4.259440 0.284863 -64.378300 11.754300 -0.000000 0.000003 -0.003319 -0.044164 -18.373000 -2.192510 6.469440 -0.000001 174.239000 19.688600 177.170000 -39.081100 -0.002282 -0.040193 0.011881 -0.013977 31.550500 -40.985400 0.000008 0.000006 2.938080 5.594670 -74.915400 -11.754300 -0.000006 -0.000006 -0.013724 -0.129628 -21.860000
0.000000 0.000000 0.000000 0.000000 0.000000 -0.000000 -1.959030 89.608800 -490.289000 90.283700 -3.258750 -2.045440 15.735700 0.000005 -0.000001 114.508000 84.570600 -115.033000 8.984550 -0.406207 -0.000000 2.141890 4.527010 -1.134020 16.377300 -0.000001 -0.000001 -1.033500 -3.967390 2.455600 6.456720 -0.000001 -0.000000 -2.276110 -5.804900 0.388604 12.994200 -0.242716 4.980390 -90.643000 2.312400 -74.457600 5.348090 -0.000007 -0.000001 -73.271300 19.441500 22.530400 24.328600 0.000019 0.000005 1.478940 0.769850 -62.500100 22.291600 -0.000001 0.000005 11.105300 5.456290 -4.867600 12.994500 -0.242716 -4.980390 89.231500 6.517330 -83.259900 -5.348130 -0.000001 -0.000004 -52.952000 13.821800 -35.791300 -24.328900 0.000322 -0.000009 -17.961600 2.081040 -96.390800 -22.291500 -0.000108 -0.000004 26.111300 5.602680 -11.504400 -2.192480 -6.469440 -0.000000 176.147000 -15.144400 -27.575200 39.081100 -0.000007 -0.000012 -0.067824 0.093436 35.975900 40.985400 -0.000006 -0.000013 3.327240 -2.371330 -63.402400 11.754300 -0.000000 0.000003 -0.002429 -0.033972 -17.958200 -2.192510 6.469440 -0.000001 172.969000 17.865600 177.079000 -39.081100 -0.002282 -0.040193 0.041107 -0.049963 37.125300 -40.985400 0.000008 0.000006 2.302170 4.781640 -72.285700 -11.754300 -0.000006 -0.000006 -0.042059 -0.268214 -27.596800
0.000000 0.000000 0.000000 0.000000 0.000000 -0.000000 -1.168910 88.914800 -486.091000 89.580000 -3.902150 -0.519307 15.735700 0.000005 -0.000001 111.945000 84.351700 -112.171000 8.984550 -0.406207 -0.000000 2.727190 4.227880 -0.551379 16.377300 -0.000001 -0.000001 -1.191110 -3.587170 2.472900 6.456720 -0.000001 -0.000000 -2.441560 -5.144870 0.667391 12.994200 -0.242716 4.980390 -91.028900 3.687680 -74.398300 5.348090 -0.000007 -0.000001 -71.500700 19.287100 17.402800 24.328600 0.000019 0.000005 1.455860 0.681234 -64.936800 22.291600 -0.000001 0.000005 11.868700 5.462050 -5.075160 12.994500 -0.242716 -4.980390 89.055200 8.047400 -83.282100 -5.348130 -0.000001 -0.000004 -51.979100 18.263800 -29.241100 -24.328900 0.000322 -0.000009 -17.639900 1.207240 -93.789000 -22.291500 -0.000108 -0.000004 25.670700 5.608340 -11.854500 -2.192480 -6.469440 -0.000000 177.672000 -13.515400 -25.155000 39.081100 -0.000007 -0.000012 -0.278775 0.325396 40.588000 40.985400 -0.000006 -0.000013 2.437720 -4.101160 -67.410600 11.754300 -0.000000 0.000003 -0.001626 -0.023942 -17.550300 -2.192510 6.469440 -0.000001 172.753000 14.986700 174.073000 -39.081100 -0.002282 -0.040193 0.106233 -0.091730 48.306800 -40.985400 0.000008 0.000006 2.606140 1.841100 -66.833800 -11.754300 -0.000006 -0.000006 -0.074443 -0.376103 -32.164700
